<mxfile host="app.diagrams.net" modified="2023-02-07T05:17:32.800Z" agent="5.0 (Windows NT 10.0; Win64; x64) AppleWebKit/537.36 (KHTML, like Gecko) Chrome/109.0.0.0 Safari/537.36" etag="ZFHGZdy4vflSS8YVmZhJ" version="20.8.17" type="github">
  <diagram name="第 1 页" id="z8ZbWiGQ90LMEzYx-Std">
    <mxGraphModel dx="2868" dy="1528" grid="1" gridSize="10" guides="1" tooltips="1" connect="1" arrows="1" fold="1" page="1" pageScale="1" pageWidth="827" pageHeight="1169" math="0" shadow="0">
      <root>
        <mxCell id="0" />
        <mxCell id="1" parent="0" />
        <mxCell id="9Oh2fof_h4mSytCA4EJ6-2" style="edgeStyle=orthogonalEdgeStyle;rounded=0;orthogonalLoop=1;jettySize=auto;html=1;fontSize=24;entryX=0;entryY=0.5;entryDx=0;entryDy=0;" edge="1" parent="1" source="9Oh2fof_h4mSytCA4EJ6-1" target="9Oh2fof_h4mSytCA4EJ6-3">
          <mxGeometry relative="1" as="geometry">
            <mxPoint x="260" y="360" as="targetPoint" />
          </mxGeometry>
        </mxCell>
        <mxCell id="9Oh2fof_h4mSytCA4EJ6-1" value="&lt;font style=&quot;font-size: 24px;&quot;&gt;local call&lt;/font&gt;" style="whiteSpace=wrap;html=1;aspect=fixed;fillColor=#f8cecc;strokeColor=#b85450;" vertex="1" parent="1">
          <mxGeometry x="30" y="290" width="140" height="140" as="geometry" />
        </mxCell>
        <mxCell id="9Oh2fof_h4mSytCA4EJ6-5" style="edgeStyle=orthogonalEdgeStyle;rounded=0;orthogonalLoop=1;jettySize=auto;html=1;exitX=1;exitY=0.5;exitDx=0;exitDy=0;entryX=0;entryY=0.5;entryDx=0;entryDy=0;fontSize=24;" edge="1" parent="1" source="9Oh2fof_h4mSytCA4EJ6-3" target="9Oh2fof_h4mSytCA4EJ6-4">
          <mxGeometry relative="1" as="geometry" />
        </mxCell>
        <mxCell id="9Oh2fof_h4mSytCA4EJ6-3" value="&lt;font style=&quot;font-size: 24px;&quot;&gt;pack arg&lt;/font&gt;" style="whiteSpace=wrap;html=1;aspect=fixed;fillColor=#fff2cc;strokeColor=#d6b656;" vertex="1" parent="1">
          <mxGeometry x="220" y="290" width="140" height="140" as="geometry" />
        </mxCell>
        <mxCell id="9Oh2fof_h4mSytCA4EJ6-19" style="edgeStyle=orthogonalEdgeStyle;rounded=0;orthogonalLoop=1;jettySize=auto;html=1;exitX=1;exitY=0.5;exitDx=0;exitDy=0;entryX=0;entryY=0.5;entryDx=0;entryDy=0;fontSize=24;" edge="1" parent="1" source="9Oh2fof_h4mSytCA4EJ6-4" target="9Oh2fof_h4mSytCA4EJ6-7">
          <mxGeometry relative="1" as="geometry" />
        </mxCell>
        <mxCell id="9Oh2fof_h4mSytCA4EJ6-4" value="&lt;font style=&quot;font-size: 24px;&quot;&gt;transmit&lt;/font&gt;" style="whiteSpace=wrap;html=1;aspect=fixed;fillColor=#d5e8d4;strokeColor=#82b366;" vertex="1" parent="1">
          <mxGeometry x="400" y="290" width="140" height="140" as="geometry" />
        </mxCell>
        <mxCell id="9Oh2fof_h4mSytCA4EJ6-6" style="edgeStyle=orthogonalEdgeStyle;rounded=0;orthogonalLoop=1;jettySize=auto;html=1;fontSize=24;entryX=0;entryY=0.5;entryDx=0;entryDy=0;" edge="1" parent="1" source="9Oh2fof_h4mSytCA4EJ6-7" target="9Oh2fof_h4mSytCA4EJ6-9">
          <mxGeometry relative="1" as="geometry">
            <mxPoint x="870" y="360" as="targetPoint" />
          </mxGeometry>
        </mxCell>
        <mxCell id="9Oh2fof_h4mSytCA4EJ6-7" value="&lt;font style=&quot;font-size: 24px;&quot;&gt;receive&lt;/font&gt;" style="whiteSpace=wrap;html=1;aspect=fixed;fillColor=#d5e8d4;strokeColor=#82b366;" vertex="1" parent="1">
          <mxGeometry x="640" y="290" width="140" height="140" as="geometry" />
        </mxCell>
        <mxCell id="9Oh2fof_h4mSytCA4EJ6-8" style="edgeStyle=orthogonalEdgeStyle;rounded=0;orthogonalLoop=1;jettySize=auto;html=1;exitX=1;exitY=0.5;exitDx=0;exitDy=0;entryX=0;entryY=0.5;entryDx=0;entryDy=0;fontSize=24;" edge="1" parent="1" source="9Oh2fof_h4mSytCA4EJ6-9" target="9Oh2fof_h4mSytCA4EJ6-10">
          <mxGeometry relative="1" as="geometry" />
        </mxCell>
        <mxCell id="9Oh2fof_h4mSytCA4EJ6-9" value="&lt;font style=&quot;font-size: 24px;&quot;&gt;unpack arg&lt;/font&gt;" style="whiteSpace=wrap;html=1;aspect=fixed;fillColor=#fff2cc;strokeColor=#d6b656;" vertex="1" parent="1">
          <mxGeometry x="830" y="290" width="140" height="140" as="geometry" />
        </mxCell>
        <mxCell id="9Oh2fof_h4mSytCA4EJ6-13" style="edgeStyle=orthogonalEdgeStyle;rounded=0;orthogonalLoop=1;jettySize=auto;html=1;exitX=0.5;exitY=1;exitDx=0;exitDy=0;entryX=0.5;entryY=0;entryDx=0;entryDy=0;fontSize=24;" edge="1" parent="1" source="9Oh2fof_h4mSytCA4EJ6-10" target="9Oh2fof_h4mSytCA4EJ6-11">
          <mxGeometry relative="1" as="geometry" />
        </mxCell>
        <mxCell id="9Oh2fof_h4mSytCA4EJ6-10" value="&lt;font style=&quot;font-size: 24px;&quot;&gt;call&lt;/font&gt;" style="whiteSpace=wrap;html=1;aspect=fixed;fillColor=#f8cecc;strokeColor=#b85450;" vertex="1" parent="1">
          <mxGeometry x="1010" y="290" width="140" height="140" as="geometry" />
        </mxCell>
        <mxCell id="9Oh2fof_h4mSytCA4EJ6-14" style="edgeStyle=orthogonalEdgeStyle;rounded=0;orthogonalLoop=1;jettySize=auto;html=1;exitX=0.5;exitY=1;exitDx=0;exitDy=0;entryX=0.5;entryY=0;entryDx=0;entryDy=0;fontSize=24;" edge="1" parent="1" source="9Oh2fof_h4mSytCA4EJ6-11" target="9Oh2fof_h4mSytCA4EJ6-12">
          <mxGeometry relative="1" as="geometry" />
        </mxCell>
        <mxCell id="9Oh2fof_h4mSytCA4EJ6-11" value="&lt;font style=&quot;font-size: 24px;&quot;&gt;exec&amp;nbsp;&lt;/font&gt;" style="whiteSpace=wrap;html=1;aspect=fixed;fillColor=#f8cecc;strokeColor=#b85450;" vertex="1" parent="1">
          <mxGeometry x="1010" y="450" width="140" height="140" as="geometry" />
        </mxCell>
        <mxCell id="9Oh2fof_h4mSytCA4EJ6-16" style="edgeStyle=orthogonalEdgeStyle;rounded=0;orthogonalLoop=1;jettySize=auto;html=1;exitX=0;exitY=0.5;exitDx=0;exitDy=0;fontSize=24;entryX=1;entryY=0.5;entryDx=0;entryDy=0;" edge="1" parent="1" source="9Oh2fof_h4mSytCA4EJ6-12" target="9Oh2fof_h4mSytCA4EJ6-15">
          <mxGeometry relative="1" as="geometry">
            <mxPoint x="980" y="680.1428571428573" as="targetPoint" />
          </mxGeometry>
        </mxCell>
        <mxCell id="9Oh2fof_h4mSytCA4EJ6-12" value="&lt;font style=&quot;font-size: 24px;&quot;&gt;return&amp;nbsp;&lt;/font&gt;" style="whiteSpace=wrap;html=1;aspect=fixed;fillColor=#f8cecc;strokeColor=#b85450;" vertex="1" parent="1">
          <mxGeometry x="1010" y="610" width="140" height="140" as="geometry" />
        </mxCell>
        <mxCell id="9Oh2fof_h4mSytCA4EJ6-18" style="edgeStyle=orthogonalEdgeStyle;rounded=0;orthogonalLoop=1;jettySize=auto;html=1;entryX=1;entryY=0.5;entryDx=0;entryDy=0;fontSize=24;" edge="1" parent="1" source="9Oh2fof_h4mSytCA4EJ6-15" target="9Oh2fof_h4mSytCA4EJ6-17">
          <mxGeometry relative="1" as="geometry" />
        </mxCell>
        <mxCell id="9Oh2fof_h4mSytCA4EJ6-15" value="&lt;font style=&quot;font-size: 24px;&quot;&gt;pack result&lt;/font&gt;" style="whiteSpace=wrap;html=1;aspect=fixed;fillColor=#fff2cc;strokeColor=#d6b656;" vertex="1" parent="1">
          <mxGeometry x="827" y="610" width="140" height="140" as="geometry" />
        </mxCell>
        <mxCell id="9Oh2fof_h4mSytCA4EJ6-26" style="edgeStyle=orthogonalEdgeStyle;rounded=0;orthogonalLoop=1;jettySize=auto;html=1;exitX=0;exitY=0.5;exitDx=0;exitDy=0;entryX=1;entryY=0.5;entryDx=0;entryDy=0;fontSize=24;" edge="1" parent="1" source="9Oh2fof_h4mSytCA4EJ6-17" target="9Oh2fof_h4mSytCA4EJ6-23">
          <mxGeometry relative="1" as="geometry" />
        </mxCell>
        <mxCell id="9Oh2fof_h4mSytCA4EJ6-17" value="&lt;font style=&quot;font-size: 24px;&quot;&gt;transmit&lt;/font&gt;" style="whiteSpace=wrap;html=1;aspect=fixed;fillColor=#d5e8d4;strokeColor=#82b366;" vertex="1" parent="1">
          <mxGeometry x="640" y="610" width="140" height="140" as="geometry" />
        </mxCell>
        <mxCell id="9Oh2fof_h4mSytCA4EJ6-20" value="Call pack" style="text;html=1;align=center;verticalAlign=middle;resizable=0;points=[];autosize=1;strokeColor=none;fillColor=none;fontSize=24;" vertex="1" parent="1">
          <mxGeometry x="530" y="240" width="120" height="40" as="geometry" />
        </mxCell>
        <mxCell id="9Oh2fof_h4mSytCA4EJ6-27" style="edgeStyle=orthogonalEdgeStyle;rounded=0;orthogonalLoop=1;jettySize=auto;html=1;exitX=0;exitY=0.5;exitDx=0;exitDy=0;entryX=1;entryY=0.5;entryDx=0;entryDy=0;fontSize=24;" edge="1" parent="1" source="9Oh2fof_h4mSytCA4EJ6-23" target="9Oh2fof_h4mSytCA4EJ6-24">
          <mxGeometry relative="1" as="geometry" />
        </mxCell>
        <mxCell id="9Oh2fof_h4mSytCA4EJ6-23" value="&lt;font style=&quot;font-size: 24px;&quot;&gt;receive&lt;/font&gt;" style="whiteSpace=wrap;html=1;aspect=fixed;fillColor=#d5e8d4;strokeColor=#82b366;" vertex="1" parent="1">
          <mxGeometry x="405" y="610" width="140" height="140" as="geometry" />
        </mxCell>
        <mxCell id="9Oh2fof_h4mSytCA4EJ6-28" style="edgeStyle=orthogonalEdgeStyle;rounded=0;orthogonalLoop=1;jettySize=auto;html=1;entryX=1;entryY=0.5;entryDx=0;entryDy=0;fontSize=24;" edge="1" parent="1" source="9Oh2fof_h4mSytCA4EJ6-24" target="9Oh2fof_h4mSytCA4EJ6-25">
          <mxGeometry relative="1" as="geometry" />
        </mxCell>
        <mxCell id="9Oh2fof_h4mSytCA4EJ6-24" value="&lt;font style=&quot;font-size: 24px;&quot;&gt;unpack result&lt;/font&gt;" style="whiteSpace=wrap;html=1;aspect=fixed;fillColor=#fff2cc;strokeColor=#d6b656;" vertex="1" parent="1">
          <mxGeometry x="222" y="610" width="140" height="140" as="geometry" />
        </mxCell>
        <mxCell id="9Oh2fof_h4mSytCA4EJ6-25" value="&lt;font style=&quot;font-size: 24px;&quot;&gt;local return&lt;/font&gt;" style="whiteSpace=wrap;html=1;aspect=fixed;fillColor=#f8cecc;strokeColor=#b85450;" vertex="1" parent="1">
          <mxGeometry x="35" y="610" width="140" height="140" as="geometry" />
        </mxCell>
        <mxCell id="9Oh2fof_h4mSytCA4EJ6-29" value="Result pack" style="text;html=1;align=center;verticalAlign=middle;resizable=0;points=[];autosize=1;strokeColor=none;fillColor=none;fontSize=24;" vertex="1" parent="1">
          <mxGeometry x="530" y="565" width="150" height="40" as="geometry" />
        </mxCell>
        <mxCell id="9Oh2fof_h4mSytCA4EJ6-32" value="Caller" style="text;html=1;align=center;verticalAlign=middle;resizable=0;points=[];autosize=1;strokeColor=none;fillColor=none;fontSize=68;" vertex="1" parent="1">
          <mxGeometry x="175" y="110" width="200" height="100" as="geometry" />
        </mxCell>
        <mxCell id="9Oh2fof_h4mSytCA4EJ6-33" value="Callee" style="text;html=1;align=center;verticalAlign=middle;resizable=0;points=[];autosize=1;strokeColor=none;fillColor=none;fontSize=68;" vertex="1" parent="1">
          <mxGeometry x="790" y="110" width="220" height="100" as="geometry" />
        </mxCell>
      </root>
    </mxGraphModel>
  </diagram>
</mxfile>
